<mxfile host="app.diagrams.net" modified="2023-12-18T15:13:11.644Z" agent="Mozilla/5.0 (Windows NT 10.0; Win64; x64) AppleWebKit/537.36 (KHTML, like Gecko) Chrome/120.0.0.0 Safari/537.36 Edg/120.0.0.0" etag="BI73ODrxRVbhJNsNuUIF" version="22.1.11" type="github">
  <diagram id="C5RBs43oDa-KdzZeNtuy" name="Page-1">
    <mxGraphModel dx="1158" dy="594" grid="1" gridSize="10" guides="1" tooltips="1" connect="1" arrows="1" fold="1" page="1" pageScale="1" pageWidth="827" pageHeight="1169" math="0" shadow="0">
      <root>
        <mxCell id="WIyWlLk6GJQsqaUBKTNV-0" />
        <mxCell id="WIyWlLk6GJQsqaUBKTNV-1" parent="WIyWlLk6GJQsqaUBKTNV-0" />
        <mxCell id="f6sN4-hRJI80j3pjLpc1-0" value="v3后台独立" style="rounded=1;whiteSpace=wrap;html=1;fontSize=14;" vertex="1" parent="WIyWlLk6GJQsqaUBKTNV-1">
          <mxGeometry x="40" y="20" width="120" height="60" as="geometry" />
        </mxCell>
        <mxCell id="f6sN4-hRJI80j3pjLpc1-1" value="&lt;div style=&quot;text-align: left; font-size: 14px;&quot;&gt;&lt;font color=&quot;#2c3e50&quot; style=&quot;font-size: 14px;&quot;&gt;登陆系统&lt;br style=&quot;font-size: 14px;&quot;&gt;&lt;/font&gt;&lt;/div&gt;" style="rounded=1;whiteSpace=wrap;html=1;shadow=0;glass=0;fontSize=14;fontFamily=Helvetica;" vertex="1" parent="WIyWlLk6GJQsqaUBKTNV-1">
          <mxGeometry x="230" y="130" width="120" height="60" as="geometry" />
        </mxCell>
        <mxCell id="f6sN4-hRJI80j3pjLpc1-2" value="菜单路由系统" style="rounded=1;whiteSpace=wrap;html=1;fontSize=14;fontFamily=Helvetica;" vertex="1" parent="WIyWlLk6GJQsqaUBKTNV-1">
          <mxGeometry x="230" y="280" width="120" height="60" as="geometry" />
        </mxCell>
        <mxCell id="f6sN4-hRJI80j3pjLpc1-3" value="old后台现有的功能模块" style="rounded=1;html=1;fontSize=14;fontFamily=Helvetica;whiteSpace=wrap;" vertex="1" parent="WIyWlLk6GJQsqaUBKTNV-1">
          <mxGeometry x="230" y="430" width="120" height="60" as="geometry" />
        </mxCell>
        <mxCell id="f6sN4-hRJI80j3pjLpc1-8" value="缺少的那些？" style="ellipse;shape=cloud;whiteSpace=wrap;html=1;" vertex="1" parent="WIyWlLk6GJQsqaUBKTNV-1">
          <mxGeometry x="10" y="270" width="120" height="80" as="geometry" />
        </mxCell>
        <mxCell id="f6sN4-hRJI80j3pjLpc1-36" style="edgeStyle=orthogonalEdgeStyle;rounded=0;orthogonalLoop=1;jettySize=auto;html=1;exitX=0;exitY=0.5;exitDx=0;exitDy=0;entryX=1;entryY=0.5;entryDx=0;entryDy=0;" edge="1" parent="WIyWlLk6GJQsqaUBKTNV-1" source="f6sN4-hRJI80j3pjLpc1-20" target="f6sN4-hRJI80j3pjLpc1-1">
          <mxGeometry relative="1" as="geometry">
            <mxPoint x="370" y="160.44444444444446" as="targetPoint" />
          </mxGeometry>
        </mxCell>
        <mxCell id="f6sN4-hRJI80j3pjLpc1-37" style="edgeStyle=orthogonalEdgeStyle;rounded=0;orthogonalLoop=1;jettySize=auto;html=1;exitX=0;exitY=0.5;exitDx=0;exitDy=0;entryX=1;entryY=0.5;entryDx=0;entryDy=0;" edge="1" parent="WIyWlLk6GJQsqaUBKTNV-1" source="f6sN4-hRJI80j3pjLpc1-20" target="f6sN4-hRJI80j3pjLpc1-2">
          <mxGeometry relative="1" as="geometry" />
        </mxCell>
        <mxCell id="f6sN4-hRJI80j3pjLpc1-38" style="edgeStyle=orthogonalEdgeStyle;rounded=0;orthogonalLoop=1;jettySize=auto;html=1;exitX=0;exitY=0.5;exitDx=0;exitDy=0;entryX=1;entryY=0.5;entryDx=0;entryDy=0;" edge="1" parent="WIyWlLk6GJQsqaUBKTNV-1" source="f6sN4-hRJI80j3pjLpc1-20" target="f6sN4-hRJI80j3pjLpc1-3">
          <mxGeometry relative="1" as="geometry" />
        </mxCell>
        <mxCell id="f6sN4-hRJI80j3pjLpc1-20" value="全局数据的维护/更改/兼容" style="swimlane;whiteSpace=wrap;html=1;startSize=20;" vertex="1" parent="WIyWlLk6GJQsqaUBKTNV-1">
          <mxGeometry x="500" y="80" width="200" height="160" as="geometry" />
        </mxCell>
        <mxCell id="f6sN4-hRJI80j3pjLpc1-27" value="&lt;div&gt;&lt;font&gt;用户信息（UInfo）&lt;/font&gt;&lt;/div&gt;&lt;div&gt;&lt;font&gt;连锁信息（GInfo）&lt;/font&gt;&lt;/div&gt;&lt;div&gt;&lt;font&gt;品牌信息（BInfo）&lt;/font&gt;&lt;/div&gt;&lt;div&gt;&lt;font&gt;门店信息（SInfo）&lt;/font&gt;&lt;/div&gt;" style="text;html=1;align=center;verticalAlign=middle;resizable=0;points=[];autosize=1;strokeColor=none;fillColor=none;fontFamily=Helvetica;" vertex="1" parent="f6sN4-hRJI80j3pjLpc1-20">
          <mxGeometry x="35" y="30" width="130" height="70" as="geometry" />
        </mxCell>
        <mxCell id="f6sN4-hRJI80j3pjLpc1-28" value="菜单信息（MenusInfo&lt;span style=&quot;background-color: initial;&quot;&gt;）&lt;/span&gt;" style="text;html=1;align=center;verticalAlign=middle;resizable=0;points=[];autosize=1;strokeColor=none;fillColor=none;" vertex="1" parent="f6sN4-hRJI80j3pjLpc1-20">
          <mxGeometry x="25" y="120" width="150" height="30" as="geometry" />
        </mxCell>
        <mxCell id="f6sN4-hRJI80j3pjLpc1-39" style="edgeStyle=orthogonalEdgeStyle;rounded=0;orthogonalLoop=1;jettySize=auto;html=1;exitX=0;exitY=0.5;exitDx=0;exitDy=0;entryX=1;entryY=0.5;entryDx=0;entryDy=0;" edge="1" parent="WIyWlLk6GJQsqaUBKTNV-1" source="f6sN4-hRJI80j3pjLpc1-21" target="f6sN4-hRJI80j3pjLpc1-1">
          <mxGeometry relative="1" as="geometry" />
        </mxCell>
        <mxCell id="f6sN4-hRJI80j3pjLpc1-40" style="edgeStyle=orthogonalEdgeStyle;rounded=0;orthogonalLoop=1;jettySize=auto;html=1;exitX=0;exitY=0.5;exitDx=0;exitDy=0;entryX=1;entryY=0.5;entryDx=0;entryDy=0;" edge="1" parent="WIyWlLk6GJQsqaUBKTNV-1" source="f6sN4-hRJI80j3pjLpc1-21" target="f6sN4-hRJI80j3pjLpc1-2">
          <mxGeometry relative="1" as="geometry" />
        </mxCell>
        <mxCell id="f6sN4-hRJI80j3pjLpc1-41" style="edgeStyle=orthogonalEdgeStyle;rounded=0;orthogonalLoop=1;jettySize=auto;html=1;exitX=0;exitY=0.5;exitDx=0;exitDy=0;" edge="1" parent="WIyWlLk6GJQsqaUBKTNV-1" source="f6sN4-hRJI80j3pjLpc1-21">
          <mxGeometry relative="1" as="geometry">
            <mxPoint x="350" y="460" as="targetPoint" />
          </mxGeometry>
        </mxCell>
        <mxCell id="f6sN4-hRJI80j3pjLpc1-21" value="&lt;div&gt;项目的稳定性&lt;/div&gt;" style="swimlane;whiteSpace=wrap;html=1;labelBorderColor=none;" vertex="1" parent="WIyWlLk6GJQsqaUBKTNV-1">
          <mxGeometry x="500" y="380" width="200" height="160" as="geometry" />
        </mxCell>
        <mxCell id="f6sN4-hRJI80j3pjLpc1-29" value="独立环境变量的配置" style="text;html=1;align=center;verticalAlign=middle;resizable=0;points=[];autosize=1;strokeColor=none;fillColor=none;" vertex="1" parent="f6sN4-hRJI80j3pjLpc1-21">
          <mxGeometry x="35" y="50" width="130" height="30" as="geometry" />
        </mxCell>
        <mxCell id="f6sN4-hRJI80j3pjLpc1-30" value="登陆、布局、iframe交互" style="text;html=1;align=center;verticalAlign=middle;resizable=0;points=[];autosize=1;strokeColor=none;fillColor=none;" vertex="1" parent="f6sN4-hRJI80j3pjLpc1-21">
          <mxGeometry x="25" y="108" width="150" height="30" as="geometry" />
        </mxCell>
        <mxCell id="f6sN4-hRJI80j3pjLpc1-24" value="" style="curved=1;endArrow=classic;html=1;rounded=0;" edge="1" parent="WIyWlLk6GJQsqaUBKTNV-1" source="f6sN4-hRJI80j3pjLpc1-8">
          <mxGeometry width="50" height="50" relative="1" as="geometry">
            <mxPoint x="150" y="330" as="sourcePoint" />
            <mxPoint x="220" y="170" as="targetPoint" />
            <Array as="points">
              <mxPoint x="150" y="280" />
            </Array>
          </mxGeometry>
        </mxCell>
        <mxCell id="f6sN4-hRJI80j3pjLpc1-25" value="" style="curved=1;endArrow=classic;html=1;rounded=0;" edge="1" parent="WIyWlLk6GJQsqaUBKTNV-1">
          <mxGeometry width="50" height="50" relative="1" as="geometry">
            <mxPoint x="130" y="310" as="sourcePoint" />
            <mxPoint x="220" y="310" as="targetPoint" />
            <Array as="points">
              <mxPoint x="160" y="320" />
              <mxPoint x="180" y="300" />
            </Array>
          </mxGeometry>
        </mxCell>
        <mxCell id="f6sN4-hRJI80j3pjLpc1-26" value="" style="curved=1;endArrow=classic;html=1;rounded=0;" edge="1" parent="WIyWlLk6GJQsqaUBKTNV-1" source="f6sN4-hRJI80j3pjLpc1-8">
          <mxGeometry width="50" height="50" relative="1" as="geometry">
            <mxPoint x="120" y="360" as="sourcePoint" />
            <mxPoint x="210" y="450" as="targetPoint" />
            <Array as="points">
              <mxPoint x="140" y="390" />
              <mxPoint x="160" y="430" />
            </Array>
          </mxGeometry>
        </mxCell>
      </root>
    </mxGraphModel>
  </diagram>
</mxfile>
